<?xml version="1.0" encoding="utf-8"?>
<!-- Generator: Adobe Illustrator 18.0.0, SVG Export Plug-In . SVG Version: 6.00 Build 0)  -->
<!DOCTYPE svg PUBLIC "-//W3C//DTD SVG 1.1//EN" "http://www.w3.org/Graphics/SVG/1.1/DTD/svg11.dtd">
<svg version="1.1" id="Layer_3" xmlns="http://www.w3.org/2000/svg" xmlns:xlink="http://www.w3.org/1999/xlink" x="0px" y="0px"
	 viewBox="0 -200 597.4 597.3" enable-background="new 0 -200 597.4 597.3" xml:space="preserve">
<path d="M589.9,185C579.9,109,523,45.9,446,26.8c-12.4-2.9-29.2-11-36.8-17.7c0,0-12-13.9-14.8-12.4s-10.5,13.4-10.5,13.4
	c-11.5,14.3-15.3,13.9-33.9-2.9c-10.5-9.1-10.5-9.1-17.7,1c-3.3,7.7-3.8,12.9-5.3,16.7c-1.4,3.8-5.7,9.1-18.2,13.4
	c-32,12.4-67.9,49.2-85.6,87.5c-8.6,18.2-15.8,35.9-16.7,39.7s-2.9,12.4-4.8,19.1c-5.7,22-2.4,64.1,7.2,88
	c2.9,7.6,5.3,14.8,5.3,15.8c0,1.4,6.7,12.4,14.8,24.4c10.5,15.3,13.4,22.5,9.6,25.3c-6.2,3.8-69.8-9.1-69.8-9.1s-78.9-3.8-130.1-1
	c-28.2,1.4-49.2,43-30.6,59.8c12,11,33.9,10.5,215.6-4.8c33.9-2.9,88.9-2.4,107.6,1c31.1,4.8,140.1,6.2,155.9,1.9
	c8.1-2.4,20.6-8.1,27.7-12.9c6.7-4.8,32-21.5,40.2-33.9c12-12.9,23-32.5,25.3-39.2C595.2,254.4,596.6,237.6,589.9,185z M336.5,28.7
	c-1.9,0.5-0.5-15.8,2.9-18.6c1.9-1,18.6,13.4,15.8,14.3S338.5,28.2,336.5,28.7z M386.7,19.6c-1.4-4.3,4.8-12.9,9.1-17.2
	c3.8,0,10.5,12,10.5,15.8C398.7,18.2,393.9,19.1,386.7,19.6z M418.8,66.5c-6.7,1-12.4-2.9-13.4-8.1c-1-5.3,3.8-10.5,10.5-11.5
	c6.7-1,12.4,2.9,13.4,8.1C429.8,60.7,425,65.5,418.8,66.5z M450.8,62.6c-6.2,0.5-12-3.3-12.4-8.6s4.3-10,10.5-10.5
	c6.2-0.5,12,3.3,12.4,8.6S457,62.2,450.8,62.6z"/>
</svg>
